<?xml version="1.0"?>
<svg xmlns="http://www.w3.org/2000/svg" id="filled_outline" data-name="filled outline" viewBox="0 0 512 512" width="512" height="512"><path d="M448,208,208,448,64,304l88-88v-9.37012A54.62742,54.62742,0,0,1,206.62988,152H216l88-88Z" style="fill:#02c26a"/><path d="M228.68652,176H224.9707A48.96928,48.96928,0,0,0,176,224.9707v3.71582l-13.65723,13.65625,11.31446,11.31446,16-16A8.00235,8.00235,0,0,0,192,232v-7.0293A32.97185,32.97185,0,0,1,224.9707,192H232a8.00235,8.00235,0,0,0,5.65723-2.34277l16-16-11.31446-11.31446Z"/><path d="M496,103.19629A87.19649,87.19649,0,0,0,347.14648,41.53906L320,68.68555,309.65723,58.34277a8.003,8.003,0,0,0-11.31446,0L212.68652,144H206.627A62.62613,62.62613,0,0,0,144,206.627v6.05957L58.34277,298.34277a8.00122,8.00122,0,0,0,0,11.31446L68.68555,320,41.53906,347.14648A87.19649,87.19649,0,0,0,164.85352,470.46094L192,443.31445l10.34277,10.34278a8.00181,8.00181,0,0,0,11.31446,0l240-240a8.00122,8.00122,0,0,0,0-11.31446L443.31445,192l27.14649-27.14648A86.6284,86.6284,0,0,0,496,103.19629ZM153.53906,459.14648A71.19543,71.19543,0,1,1,52.85352,358.46094L80,331.31445,180.68555,432ZM424.00049,220.686l-98.34326-98.34327-11.31446,11.31446,10.46192,10.46191L146.22363,330.46484l11.55274,11.07032L336.12158,155.436l12.68311,12.6831L170.22363,354.46484l11.55274,11.07032L360.12158,179.436l12.68311,12.6831L194.22363,378.46484l11.55274,11.07032L384.12158,203.436,412.686,232.00049,208,436.68652,75.31348,304l82.34375-82.34277A8.00235,8.00235,0,0,0,160,216V206.627A46.6287,46.6287,0,0,1,206.627,160H216a8.00235,8.00235,0,0,0,5.65723-2.34277L304,75.31348,436.68652,208ZM432,180.68555,331.31445,80l27.14649-27.14648A71.19543,71.19543,0,1,1,459.14648,153.53906Z"/></svg>
